<svg xmlns="http://www.w3.org/2000/svg" viewBox="0 0 512 512" role="img" aria-labelledby="title desc">
  <title id="title">Sweat Manager app icon</title>
  <desc id="desc">A dark rounded boxing gym management app icon with red boxing glove mark.</desc>
  <defs>
    <linearGradient id="bg" x1="0" x2="1" y1="0" y2="1">
      <stop offset="0" stop-color="#202a3c"/>
      <stop offset="1" stop-color="#0a0d14"/>
    </linearGradient>
    <linearGradient id="glove" x1="0" x2="1" y1="0" y2="1">
      <stop offset="0" stop-color="#fb7185"/>
      <stop offset="1" stop-color="#ef4444"/>
    </linearGradient>
  </defs>
  <rect width="512" height="512" rx="112" fill="url(#bg)"/>
  <circle cx="256" cy="256" r="188" fill="#111827" stroke="#ef4444" stroke-width="18"/>
  <path fill="url(#glove)" d="M293 137c-38 0-72 22-88 56-20-13-48-7-61 15-13 21-6 49 16 62l19 12v60c0 19 15 34 34 34h119c19 0 34-15 34-34v-85c0-66-32-120-73-120Z"/>
  <path fill="#7f1d1d" d="M179 306h187v44c0 19-15 34-34 34H213c-19 0-34-15-34-34v-44Z"/>
  <path fill="#fecaca" d="M212 202c10-25 35-43 64-43 39 0 69 42 69 96v25H212v-78Z" opacity=".28"/>
  <path fill="#f8fafc" d="M158 386h196c15 0 28 12 28 28s-13 28-28 28H158c-16 0-28-12-28-28s12-28 28-28Z"/>
  <text x="256" y="431" text-anchor="middle" font-family="Arial, sans-serif" font-size="34" font-weight="900" fill="#111827">SWEAT</text>
</svg>
